<?xml version="1.0" encoding="UTF-8"?><svg id="uuid-96d18a8d-42b4-4f5b-a717-033d35f82907" xmlns="http://www.w3.org/2000/svg" width="22.17mm" height="12.57mm" xmlns:xlink="http://www.w3.org/1999/xlink" viewBox="0 0 62.86 35.63"><defs><radialGradient id="uuid-74f3e8f3-2c47-428c-95f3-ea1c6259dc2d" cx="31.47" cy="19.15" fx="31.47" fy="19.15" r="23.71" gradientUnits="userSpaceOnUse"><stop offset=".01" stop-color="#7c60e6"/><stop offset=".09" stop-color="#725edb"/><stop offset=".32" stop-color="#575abe"/><stop offset=".55" stop-color="#4458a9"/><stop offset=".78" stop-color="#38569d"/><stop offset="1" stop-color="#355699"/></radialGradient></defs><path d="m62.88,26.83c-2.95.06-7.47-.4-14.06-9.04l-.04.03s-.02-.02-.03-.03c-4-4.85-8.45-10.36-17.24-10.36s-13.35,5.65-17.31,10.51c-.65.79-1.29,1.58-2,2.35-.04.06-.07.13-.1.19-3.16,3.64-6.39,6.35-12.03,6.35l-.02,4.04c8.8,0,13.28-5.51,17.24-10.36,3.96-4.85,7.25-8.89,14.14-8.89.09,0,.17-.01.26-.03,6.65.14,9.97,4.18,13.79,8.88,1.95,2.39,4.08,4.98,6.83,6.97v-.03c1.33.98,2.77,1.82,4.43,2.42,1.78.65,3.8,1.03,6.11,1.03l.02-4.04Z" style="fill:url(#uuid-74f3e8f3-2c47-428c-95f3-ea1c6259dc2d); stroke-width:0px;"/></svg>