<?xml version="1.0" encoding="UTF-8"?><svg id="uuid-c496062a-6147-47dc-8cb1-d4f28eb19619" xmlns="http://www.w3.org/2000/svg" width="52mm" height="52mm" xmlns:xlink="http://www.w3.org/1999/xlink" viewBox="0 0 147.4 147.4"><defs><radialGradient id="uuid-17c6f998-7fbf-45e5-aa1e-f0b61f9403dc" cx="26.73" cy="65.9" fx="26.73" fy="65.9" r="11.07" gradientUnits="userSpaceOnUse"><stop offset=".01" stop-color="#7c60e6"/><stop offset=".09" stop-color="#725edb"/><stop offset=".32" stop-color="#575abe"/><stop offset=".55" stop-color="#4458a9"/><stop offset=".78" stop-color="#38569d"/><stop offset="1" stop-color="#355699"/></radialGradient><radialGradient id="uuid-3aca04fa-a2fe-45cb-88a4-493572b93a4c" cx="73.72" cy="51.46" fx="73.72" fy="51.46" r="7.05" xlink:href="#uuid-17c6f998-7fbf-45e5-aa1e-f0b61f9403dc"/><radialGradient id="uuid-caa6a3b8-ca2d-4aa2-a617-d758c128efba" cx="73.72" cy="59.47" fx="73.72" fy="59.47" r="7.05" xlink:href="#uuid-17c6f998-7fbf-45e5-aa1e-f0b61f9403dc"/><radialGradient id="uuid-10f7f1d3-405d-487f-ab5e-b945a6c9994d" cx="26.69" cy="32.06" fx="26.69" fy="32.06" r="11.07" xlink:href="#uuid-17c6f998-7fbf-45e5-aa1e-f0b61f9403dc"/><radialGradient id="uuid-2fb84368-5c6a-442b-8fc0-b9e9abd421a0" cx="19.1" cy="49" fx="19.1" fy="49" r="10.9" xlink:href="#uuid-17c6f998-7fbf-45e5-aa1e-f0b61f9403dc"/><radialGradient id="uuid-bb3319b3-12f7-499c-ad24-e34d86c8a588" cx="120.65" cy="65.94" fx="120.65" fy="65.94" r="11.01" xlink:href="#uuid-17c6f998-7fbf-45e5-aa1e-f0b61f9403dc"/><radialGradient id="uuid-cce0dc0f-2ca0-4a74-a428-8ad52396cf32" cx="128.25" cy="49.01" fx="128.25" fy="49.01" r="10.9" xlink:href="#uuid-17c6f998-7fbf-45e5-aa1e-f0b61f9403dc"/><radialGradient id="uuid-52451efa-b368-44d2-b9d7-cb5e362b8344" cx="73.68" cy="43.45" fx="73.68" fy="43.45" r="7.08" xlink:href="#uuid-17c6f998-7fbf-45e5-aa1e-f0b61f9403dc"/><radialGradient id="uuid-a675be29-5d97-4672-9013-63c73cc78ba6" cx="120.62" cy="32.18" fx="120.62" fy="32.18" r="11.03" xlink:href="#uuid-17c6f998-7fbf-45e5-aa1e-f0b61f9403dc"/><radialGradient id="uuid-8f387b7f-0bc2-44f0-8ce8-fd093da095b3" cx="73.79" cy="76.09" fx="73.79" fy="76.09" r="55.66" xlink:href="#uuid-17c6f998-7fbf-45e5-aa1e-f0b61f9403dc"/></defs><path d="m35.46,56.28l-20,16.11c-.86.7-.99,1.97-.28,2.83.7.86,1.97.99,2.82.28l19.97-16.09c.86-.69,1-1.96.31-2.82s-1.96-1-2.82-.31Z" style="fill:url(#uuid-17c6f998-7fbf-45e5-aa1e-f0b61f9403dc); stroke-width:0px;"/><path d="m81.57,49.45h-15.62c-1.1,0-2,.9-2,2s.9,2,2,2h15.43c1.1.05,2.04-.8,2.1-1.9.05-1.1-.8-2.04-1.91-2.1Z" style="fill:url(#uuid-3aca04fa-a2fe-45cb-88a4-493572b93a4c); stroke-width:0px;"/><path d="m81.57,57.46h-15.62c-1.1,0-2,.9-2,2s.9,2,2,2h15.43c1.1.05,2.04-.8,2.1-1.9.05-1.11-.8-2.04-1.91-2.1Z" style="fill:url(#uuid-caa6a3b8-ca2d-4aa2-a617-d758c128efba); stroke-width:0px;"/><path d="m15.49,25.62l20,16.1c.89.66,2.14.47,2.8-.42.62-.84.49-2.01-.29-2.69l-19.98-16.11c-.83-.73-2.09-.66-2.83.17-.74.83-.66,2.1.17,2.83l.13.12Z" style="fill:url(#uuid-10f7f1d3-405d-487f-ab5e-b945a6c9994d); stroke-width:0px;"/><path d="m34.37,49c0-1.1-.89-2-2-2H5.9c-1.1-.05-2.04.81-2.09,1.91-.05,1.1.81,2.04,1.92,2.09h26.64c1.11,0,2-.9,2-2Z" style="fill:url(#uuid-2fb84368-5c6a-442b-8fc0-b9e9abd421a0); stroke-width:0px;"/><path d="m111.9,56.34c-.89-.66-2.14-.47-2.8.42,0,0,0,0,0,0-.62.84-.49,2.01.29,2.69l20,16.09c.89.66,2.14.47,2.8-.42.62-.84.49-2.01-.29-2.69l-20-16.09Z" style="fill:url(#uuid-bb3319b3-12f7-499c-ad24-e34d86c8a588); stroke-width:0px;"/><path d="m141.62,47h-26.66c-1.1,0-2,.9-2,2s.9,2,2,2h26.47c1.11.05,2.04-.8,2.1-1.91.05-1.1-.8-2.04-1.91-2.09Z" style="fill:url(#uuid-cce0dc0f-2ca0-4a74-a428-8ad52396cf32); stroke-width:0px;"/><path d="m81.57,41.45h-15.62c-1.1-.05-2.04.81-2.09,1.92-.05,1.1.81,2.04,1.92,2.08h15.6c1.1.05,2.04-.8,2.1-1.9.05-1.1-.8-2.04-1.91-2.1Z" style="fill:url(#uuid-52451efa-b368-44d2-b9d7-cb5e362b8344); stroke-width:0px;"/><path d="m110.64,42.19v-.04c.45.02.9-.12,1.26-.39l20-16.09c.83-.73.91-1.99.18-2.82-.69-.78-1.86-.91-2.69-.29l-20,16.07c-.86.69-1,1.95-.31,2.81.38.47.95.75,1.56.75Z" style="fill:url(#uuid-a675be29-5d97-4672-9013-63c73cc78ba6); stroke-width:0px;"/><path d="m102.92,110.97l-1.09-9.46c-.08-.74-.17-1.51-.26-2.33l-3.2-28.22v-.09c0-.07,0-.14,0-.21,0-.06-.02-.12-.05-.17-.03-.07-.06-.14-.09-.21l-.12-.11-.15-.21-.07-.09-.21-.2-.07-.06-.24-.16h-.09l-.25-.1h-1.76v-37.22c.01-.06.01-.13,0-.19-.04-.36-.18-.71-.4-1l-19.61-25.43c-.74-.87-2.05-.97-2.92-.23-.08.07-.16.15-.23.23l-19.59,25.39c-.22.29-.36.64-.4,1v37.29h-1.53l-.27.11h-.06l-.27.17h-.05c-.08.07-.15.14-.22.21l-.06.07c-.06.07-.11.14-.16.22l-.07.12c-.04.07-.07.15-.1.22-.01.05-.03.11-.05.16,0,.07,0,.14,0,.21v.09l-8.8,76.64h46.33l-2.46-4.26,7.24-12.53h9.55l1.91,16.79h4.06l-2.5-21.79c-.78-6.93-1.21-10.56-1.68-14.64Zm-5.6-13.56h-6.14l-7-12.11,6.95-12h3.44l2.75,24.11Zm-16.62-14.1h-14l-5.79-10.01h25.58l-5.79,10.01Zm-7-73.32l15.5,20.16h-31l15.5-20.16Zm-17.59,24.12h35.16v35.1h-35.16v-35.1Zm-9.22,92.63l1.67-14.64,1.22-10.69h6.46l7,12.11-7.63,13.22h-8.71Zm12.43,1.54l7.23-12.52h14.47l7.24,12.53-7.24,12.53h-14.47l-7.23-12.55Z" style="fill:url(#uuid-8f387b7f-0bc2-44f0-8ce8-fd093da095b3); stroke-width:0px;"/></svg>