<?xml version="1.0" encoding="UTF-8"?><svg id="uuid-18aa4901-6cda-4d56-8502-75e3f88cd923" xmlns="http://www.w3.org/2000/svg" width="52mm" height="52mm" xmlns:xlink="http://www.w3.org/1999/xlink" viewBox="0 0 147.4 147.4"><defs><radialGradient id="uuid-a89fa4a3-7f0a-4a70-ad25-6069fbbb3e1c" cx="26.73" cy="65.9" fx="26.73" fy="65.9" r="11.07" gradientUnits="userSpaceOnUse"><stop offset=".01" stop-color="#7c60e6"/><stop offset=".09" stop-color="#725edb"/><stop offset=".32" stop-color="#575abe"/><stop offset=".55" stop-color="#4458a9"/><stop offset=".78" stop-color="#38569d"/><stop offset="1" stop-color="#355699"/></radialGradient><radialGradient id="uuid-14112663-0361-4ca7-8fb3-124e22cb25b0" cx="73.72" cy="51.46" fx="73.72" fy="51.46" r="7.05" xlink:href="#uuid-a89fa4a3-7f0a-4a70-ad25-6069fbbb3e1c"/><radialGradient id="uuid-a4c6c27b-aac5-49df-ac07-4f9f425b3233" cx="73.72" cy="59.47" fx="73.72" fy="59.47" r="7.05" xlink:href="#uuid-a89fa4a3-7f0a-4a70-ad25-6069fbbb3e1c"/><radialGradient id="uuid-ddb437ed-f32a-4114-b0f8-b6c387b366c2" cx="26.69" cy="32.06" fx="26.69" fy="32.06" r="11.07" xlink:href="#uuid-a89fa4a3-7f0a-4a70-ad25-6069fbbb3e1c"/><radialGradient id="uuid-a45a3e75-000f-4323-a617-11f463bda04c" cx="19.1" cy="49" fx="19.1" fy="49" r="10.9" xlink:href="#uuid-a89fa4a3-7f0a-4a70-ad25-6069fbbb3e1c"/><radialGradient id="uuid-faa1e9be-8727-41d1-acf7-0d6290eceff6" cx="120.65" cy="65.94" fx="120.65" fy="65.94" r="11.01" xlink:href="#uuid-a89fa4a3-7f0a-4a70-ad25-6069fbbb3e1c"/><radialGradient id="uuid-fdd99719-c150-476c-a1c8-fdcfe650ca47" cx="128.25" cy="49.01" fx="128.25" fy="49.01" r="10.9" xlink:href="#uuid-a89fa4a3-7f0a-4a70-ad25-6069fbbb3e1c"/><radialGradient id="uuid-4ba8f8a4-963f-4862-86a3-38ba61e4b149" cx="73.68" cy="43.45" fx="73.68" fy="43.45" r="7.08" xlink:href="#uuid-a89fa4a3-7f0a-4a70-ad25-6069fbbb3e1c"/><radialGradient id="uuid-9f61fe89-af90-4241-977e-e8f668c0ec72" cx="120.62" cy="32.18" fx="120.62" fy="32.18" r="11.03" xlink:href="#uuid-a89fa4a3-7f0a-4a70-ad25-6069fbbb3e1c"/><radialGradient id="uuid-ce896c34-c612-4bc3-b069-a95c5244ba82" cx="73.79" cy="76.09" fx="73.79" fy="76.09" r="55.66" xlink:href="#uuid-a89fa4a3-7f0a-4a70-ad25-6069fbbb3e1c"/><radialGradient id="uuid-24a2cb7e-2fc5-4771-80a0-f8d8c7c2df45" cx="73.78" cy="128.3" fx="73.78" fy="128.3" r="17.63" xlink:href="#uuid-a89fa4a3-7f0a-4a70-ad25-6069fbbb3e1c"/><radialGradient id="uuid-1e48d18d-ed2f-4a3e-b770-89a7c0a14987" cx="62.09" cy="137.07" fx="62.09" fy="137.07" r="15.98" xlink:href="#uuid-a89fa4a3-7f0a-4a70-ad25-6069fbbb3e1c"/><radialGradient id="uuid-3a192fdc-771e-4fb1-9c1f-64c3007f5ec5" cx="92.52" cy="137.7" fx="92.52" fy="137.7" r="11.11" xlink:href="#uuid-a89fa4a3-7f0a-4a70-ad25-6069fbbb3e1c"/></defs><path d="m35.46,56.28l-20,16.11c-.86.7-.99,1.97-.28,2.83.7.86,1.97.99,2.82.28l19.97-16.09c.86-.69,1-1.96.31-2.82s-1.96-1-2.82-.31Z" style="fill:url(#uuid-a89fa4a3-7f0a-4a70-ad25-6069fbbb3e1c); stroke-width:0px;"/><path d="m81.57,49.45h-15.62c-1.1,0-2,.9-2,2s.9,2,2,2h15.43c1.1.05,2.04-.8,2.1-1.9.05-1.1-.8-2.04-1.91-2.1Z" style="fill:url(#uuid-14112663-0361-4ca7-8fb3-124e22cb25b0); stroke-width:0px;"/><path d="m81.57,57.46h-15.62c-1.1,0-2,.9-2,2s.9,2,2,2h15.43c1.1.05,2.04-.8,2.1-1.9.05-1.11-.8-2.04-1.91-2.1Z" style="fill:url(#uuid-a4c6c27b-aac5-49df-ac07-4f9f425b3233); stroke-width:0px;"/><path d="m15.49,25.62l20,16.1c.89.66,2.14.47,2.8-.42.62-.84.49-2.01-.29-2.69l-19.98-16.11c-.83-.73-2.09-.66-2.83.17-.74.83-.66,2.1.17,2.83l.13.12Z" style="fill:url(#uuid-ddb437ed-f32a-4114-b0f8-b6c387b366c2); stroke-width:0px;"/><path d="m34.37,49c0-1.1-.89-2-2-2H5.9c-1.1-.05-2.04.81-2.09,1.91-.05,1.1.81,2.04,1.92,2.09h26.64c1.11,0,2-.9,2-2Z" style="fill:url(#uuid-a45a3e75-000f-4323-a617-11f463bda04c); stroke-width:0px;"/><path d="m111.9,56.34c-.89-.66-2.14-.47-2.8.42,0,0,0,0,0,0-.62.84-.49,2.01.29,2.69l20,16.09c.89.66,2.14.47,2.8-.42.62-.84.49-2.01-.29-2.69l-20-16.09Z" style="fill:url(#uuid-faa1e9be-8727-41d1-acf7-0d6290eceff6); stroke-width:0px;"/><path d="m141.62,47h-26.66c-1.1,0-2,.9-2,2s.9,2,2,2h26.47c1.11.05,2.04-.8,2.1-1.91.05-1.1-.8-2.04-1.91-2.09Z" style="fill:url(#uuid-fdd99719-c150-476c-a1c8-fdcfe650ca47); stroke-width:0px;"/><path d="m81.57,41.45h-15.62c-1.1-.05-2.04.81-2.09,1.92-.05,1.1.81,2.04,1.92,2.08h15.6c1.1.05,2.04-.8,2.1-1.9.05-1.1-.8-2.04-1.91-2.1Z" style="fill:url(#uuid-4ba8f8a4-963f-4862-86a3-38ba61e4b149); stroke-width:0px;"/><path d="m110.64,42.19v-.04c.45.02.9-.12,1.26-.39l20-16.09c.83-.73.91-1.99.18-2.82-.69-.78-1.86-.91-2.69-.29l-20,16.07c-.86.69-1,1.95-.31,2.81.38.47.95.75,1.56.75Z" style="fill:url(#uuid-9f61fe89-af90-4241-977e-e8f668c0ec72); stroke-width:0px;"/><path d="m102.92,110.97l-1.09-9.46c-.08-.74-.17-1.51-.26-2.33l-3.2-28.22v-.09c0-.07,0-.14,0-.21,0-.06-.02-.12-.05-.17-.03-.07-.06-.14-.09-.21l-.12-.11-.15-.21-.07-.09-.21-.2-.07-.06-.24-.16h-.09l-.25-.1h-1.76v-37.22c.01-.06.01-.13,0-.19-.04-.36-.18-.71-.4-1l-19.61-25.43c-.74-.87-2.05-.97-2.92-.23-.08.07-.16.15-.23.23l-19.59,25.39c-.22.29-.36.64-.4,1v37.29h-1.53l-.27.11h-.06l-.27.17h-.05c-.08.07-.15.14-.22.21l-.06.07c-.06.07-.11.14-.16.22l-.07.12c-.04.07-.07.15-.1.22-.01.05-.03.11-.05.16,0,.07,0,.14,0,.21v.09l-8.8,76.64h4.06l4.01-35.3,1.22-10.69h6.46l7,12.11,20.9-.38,4.22,15.15h12.52l2.17,19.1h4.06l-2.5-21.79c-.78-6.93-1.21-10.56-1.68-14.64ZM73.69,9.99l15.5,20.16h-31l15.5-20.16Zm-17.59,59.22v-35.1h35.16v35.1h-35.16Zm10.59,14.1l-5.79-10.01h25.58l-5.79,10.01h-14Zm24.48,14.1l-7-12.11,6.95-12h3.44l2.75,24.11h-6.14Z" style="fill:url(#uuid-ce896c34-c612-4bc3-b069-a95c5244ba82); stroke-width:0px;"/><path d="m66.9,115.15h0,0m14.12.62l7.24,12.53-7.24,12.53h-14.47l-7.24-12.53,7.24-12.53h14.47m.72-4h-15.91c-.99,0-1.9.53-2.39,1.38l-7.95,13.78c-.49.85-.49,1.91,0,2.76l7.95,13.78c.49.85,1.4,1.38,2.39,1.38h15.91c.99,0,1.9-.53,2.39-1.38l7.95-13.78c.49-.85.49-1.91,0-2.76l-7.95-13.78c-.49-.85-1.4-1.38-2.39-1.38h0Z" style="fill:url(#uuid-24a2cb7e-2fc5-4771-80a0-f8d8c7c2df45); stroke-width:0px;"/><path d="m42,130.12h0,0m14.83-3.38h-9.95l-2.35,20.66h37.65l-.86-3.39-13.62-1.18-8.48-14.72c-.49-.85-1.4-1.38-2.39-1.38h0Z" style="fill:url(#uuid-1e48d18d-ed2f-4a3e-b770-89a7c0a14987); stroke-width:0px;"/><path d="m104.16,127.99h-15.69l-7.95,13.78c-.49.85-.49,1.91,0,2.76l1.66,2.88h4.62l-2.46-4.26,7.24-12.53h9.55l1.91,16.79h1.84l-.71-19.41Z" style="fill:url(#uuid-3a192fdc-771e-4fb1-9c1f-64c3007f5ec5); stroke-width:0px;"/></svg>