<?xml version="1.0" encoding="UTF-8"?><svg id="uuid-4b3afd65-a604-4d09-913b-7e9b38cbf8d1" xmlns="http://www.w3.org/2000/svg" width="52mm" height="52mm" xmlns:xlink="http://www.w3.org/1999/xlink" viewBox="0 0 147.4 147.4"><defs><clipPath id="uuid-295fe8ef-df8e-42d2-8408-d82838247772"><path d="m38.28,56.59c.69.86.55,2.13-.31,2.82l-19.97,16.09c-.86.7-2.12.57-2.82-.28-.7-.86-.57-2.12.28-2.83l20-16.11c.86-.69,2.13-.55,2.82.31Zm43.29-7.14h-15.62c-1.1,0-2,.9-2,2s.9,2,2,2h15.43c1.1.05,2.04-.8,2.1-1.9.05-1.1-.8-2.04-1.91-2.1Zm0,8.01h-15.62c-1.1,0-2,.9-2,2s.9,2,2,2h15.43c1.1.05,2.04-.8,2.1-1.9.05-1.11-.8-2.04-1.91-2.1ZM15.49,25.62l20,16.1c.89.66,2.14.47,2.8-.42.62-.84.49-2.01-.29-2.69l-19.98-16.11c-.83-.73-2.09-.66-2.83.17-.74.83-.66,2.1.17,2.83l.13.12Zm18.88,23.38c0-1.1-.89-2-2-2H5.9c-1.1-.05-2.04.81-2.09,1.91-.05,1.1.81,2.04,1.92,2.09h26.64c1.11,0,2-.9,2-2Zm77.53,7.34c-.89-.66-2.14-.47-2.8.42,0,0,0,0,0,0-.62.84-.49,2.01.29,2.69l20,16.09c.89.66,2.14.47,2.8-.42.62-.84.49-2.01-.29-2.69l-20-16.09Zm29.72-9.34h-26.66c-1.1,0-2,.9-2,2s.9,2,2,2h26.47c1.11.05,2.04-.8,2.1-1.91.05-1.1-.8-2.04-1.91-2.09Zm-60.05-5.55h-15.62c-1.1-.05-2.04.81-2.09,1.92-.05,1.1.81,2.04,1.92,2.08h15.6c1.1.05,2.04-.8,2.1-1.9.05-1.1-.8-2.04-1.91-2.1Zm29.07.74v-.04c.45.02.9-.12,1.26-.39l20-16.09c.83-.73.91-1.99.18-2.82-.69-.78-1.86-.91-2.69-.29l-20,16.07c-.86.69-1,1.95-.31,2.81.38.47.95.75,1.56.75Zm-3.55,105.21h-4.06l-1.91-16.79h-9.55l-7.24,12.53,2.46,4.26h-46.33l8.8-76.64v-.09c0-.07,0-.14,0-.21.02-.05.04-.1.05-.16.03-.08.06-.15.1-.22l.07-.12c.05-.08.1-.15.16-.22l.06-.07c.07-.08.14-.15.22-.21h.05l.27-.17h.06l.27-.11h1.53V31.89c.04-.36.18-.71.4-1l19.59-25.39c.07-.08.15-.16.23-.23.87-.74,2.18-.64,2.92.23l19.61,25.43c.22.29.36.64.4,1,.01.06.01.13,0,.19v37.22h1.76l.25.1h.09l.24.16.07.06.21.2.07.09.15.21.12.11c.03.07.06.14.09.21.03.05.04.11.05.17,0,.07,0,.14,0,.21v.09l3.2,28.22c.09.82.18,1.6.26,2.33l1.09,9.46c.47,4.07.9,7.71,1.68,14.64l2.5,21.79ZM58.19,30.15h31l-15.5-20.16-15.5,20.16Zm-2.09,39.06h35.16v-35.1h-35.16v35.1Zm4.8,4.09l5.79,10.01h14l5.79-10.01h-25.58Zm-5.32,53.44l7.63-13.22-7-12.11h-6.46l-1.22,10.69-1.67,14.64h8.71Zm32.67,1.56l-7.24-12.53h-14.47l-7.23,12.52,7.23,12.55h14.47l7.24-12.53Zm9.06-30.89l-2.75-24.11h-3.44l-6.95,12,7,12.11h6.14Z" style="fill:none; stroke-width:0px;"/></clipPath><radialGradient id="uuid-74802be2-fa4c-44ef-ab78-ee7b5572cfc0" cx="73.7" cy="73.7" fx="73.7" fy="-49.12" r="203.08" gradientUnits="userSpaceOnUse"><stop offset=".39" stop-color="#e2dbff"/><stop offset=".86" stop-color="#5a9cfa"/></radialGradient></defs><g style="clip-path:url(#uuid-295fe8ef-df8e-42d2-8408-d82838247772);"><rect x=".15" y=".15" width="147.1" height="147.1" style="fill:url(#uuid-74802be2-fa4c-44ef-ab78-ee7b5572cfc0); stroke-width:0px;"/></g></svg>